<svg xmlns="http://www.w3.org/2000/svg" xmlns:xlink="http://www.w3.org/1999/xlink" preserveAspectRatio="xMidYMid" width="19" height="19" viewBox="0 0 19 19">
  <defs>
    <style>

      .cls-2 {
        fill: #ffffff;
      }
    </style>
  </defs>
  <path d="M7.852,12.848 C6.475,12.848 5.298,12.358 4.319,11.380 C3.341,10.402 2.852,9.224 2.852,7.848 C2.852,6.471 3.341,5.294 4.319,4.315 C5.298,3.337 6.475,2.848 7.852,2.848 C9.228,2.848 10.406,3.337 11.384,4.315 C12.362,5.294 12.852,6.471 12.852,7.848 C12.852,9.224 12.362,10.402 11.384,11.380 C10.406,12.358 9.228,12.848 7.852,12.848 ZM18.153,16.129 C18.153,16.129 14.325,12.301 14.325,12.301 C15.247,10.969 15.709,9.485 15.709,7.848 C15.709,6.784 15.502,5.766 15.089,4.795 C14.676,3.824 14.118,2.987 13.415,2.284 C12.712,1.581 11.875,1.023 10.904,0.610 C9.933,0.197 8.916,-0.010 7.852,-0.010 C6.788,-0.010 5.770,0.197 4.799,0.610 C3.828,1.023 2.991,1.581 2.288,2.284 C1.585,2.987 1.027,3.824 0.614,4.795 C0.201,5.766 -0.006,6.784 -0.006,7.848 C-0.006,8.912 0.201,9.929 0.614,10.900 C1.027,11.871 1.585,12.708 2.288,13.411 C2.991,14.114 3.828,14.672 4.799,15.085 C5.770,15.498 6.788,15.705 7.852,15.705 C9.488,15.705 10.973,15.243 12.305,14.321 C12.305,14.321 16.133,18.138 16.133,18.138 C16.401,18.420 16.736,18.562 17.137,18.562 C17.524,18.562 17.859,18.420 18.142,18.138 C18.424,17.855 18.566,17.520 18.566,17.133 C18.566,16.739 18.428,16.404 18.153,16.129 C18.153,16.129 18.153,16.129 18.153,16.129 Z" id="path-1" class="cls-2" fill-rule="evenodd"/>
</svg>
